<?xml version="1.0" encoding="UTF-8" standalone="no"?>
<!DOCTYPE svg PUBLIC "-//W3C//DTD SVG 1.1//EN"
 "http://www.w3.org/Graphics/SVG/1.1/DTD/svg11.dtd">
<!-- Generated by graphviz version 11.0.0 (20240428.1522)
 -->
<!-- Pages: 1 -->
<svg width="246pt" height="205pt"
 viewBox="0.00 0.00 245.87 204.50" xmlns="http://www.w3.org/2000/svg" xmlns:xlink="http://www.w3.org/1999/xlink">
<g id="graph0" class="graph" transform="scale(1 1) rotate(0) translate(4 200.5)">
<polygon fill="white" stroke="none" points="-4,4 -4,-200.5 241.87,-200.5 241.87,4 -4,4"/>
<!-- 0 -->
<g id="node1" class="node">
<title>0</title>
<ellipse fill="none" stroke="black" cx="118.93" cy="-90" rx="39.58" ry="18"/>
<text text-anchor="middle" x="118.93" y="-84.95" font-family="Times,serif" font-size="14.00">&quot;adder&quot;</text>
</g>
<!-- 1 -->
<g id="node2" class="node">
<title>1</title>
<ellipse fill="none" stroke="black" cx="118.93" cy="-18" rx="30.88" ry="18"/>
<text text-anchor="middle" x="118.93" y="-12.95" font-family="Times,serif" font-size="14.00">&quot;log&quot;</text>
</g>
<!-- 0&#45;&gt;1 -->
<g id="edge3" class="edge">
<title>0&#45;&gt;1</title>
<path fill="none" stroke="black" d="M118.93,-71.7C118.93,-64.41 118.93,-55.73 118.93,-47.54"/>
<polygon fill="black" stroke="black" points="122.43,-47.62 118.93,-37.62 115.43,-47.62 122.43,-47.62"/>
</g>
<!-- 2 -->
<g id="node3" class="node">
<title>2</title>
<ellipse fill="none" stroke="black" cx="54.93" cy="-178.5" rx="54.93" ry="18"/>
<text text-anchor="middle" x="54.93" y="-173.45" font-family="Times,serif" font-size="14.00">&quot;emitter_1&quot;</text>
</g>
<!-- 2&#45;&gt;0 -->
<g id="edge1" class="edge">
<title>2&#45;&gt;0</title>
<path fill="none" stroke="black" d="M67.27,-160.82C76.63,-148.18 89.65,-130.58 100.27,-116.22"/>
<polygon fill="black" stroke="black" points="102.81,-118.67 105.95,-108.55 97.19,-114.51 102.81,-118.67"/>
<text text-anchor="middle" x="104.93" y="-129.2" font-family="Times,serif" font-size="14.00">to: a</text>
</g>
<!-- 3 -->
<g id="node4" class="node">
<title>3</title>
<ellipse fill="none" stroke="black" cx="182.93" cy="-178.5" rx="54.93" ry="18"/>
<text text-anchor="middle" x="182.93" y="-173.45" font-family="Times,serif" font-size="14.00">&quot;emitter_2&quot;</text>
</g>
<!-- 3&#45;&gt;0 -->
<g id="edge2" class="edge">
<title>3&#45;&gt;0</title>
<path fill="none" stroke="black" d="M170.59,-160.82C161.24,-148.18 148.22,-130.58 137.59,-116.22"/>
<polygon fill="black" stroke="black" points="140.68,-114.51 131.92,-108.55 135.05,-118.67 140.68,-114.51"/>
<text text-anchor="middle" x="168.31" y="-129.2" font-family="Times,serif" font-size="14.00">to: b</text>
</g>
</g>
</svg>
