<?xml version="1.0" encoding="UTF-8" standalone="no"?>
<!DOCTYPE svg PUBLIC "-//W3C//DTD SVG 1.1//EN"
 "http://www.w3.org/Graphics/SVG/1.1/DTD/svg11.dtd">
<!-- Generated by graphviz version 11.0.0 (20240428.1522)
 -->
<!-- Pages: 1 -->
<svg width="292pt" height="294pt"
 viewBox="0.00 0.00 291.94 293.78" xmlns="http://www.w3.org/2000/svg" xmlns:xlink="http://www.w3.org/1999/xlink">
<g id="graph0" class="graph" transform="scale(1 1) rotate(0) translate(4 289.78)">
<polygon fill="white" stroke="none" points="-4,4 -4,-289.78 287.94,-289.78 287.94,4 -4,4"/>
<!-- 0 -->
<g id="node1" class="node">
<title>0</title>
<ellipse fill="none" stroke="black" cx="141.47" cy="-122.97" rx="61.7" ry="28.99"/>
<text text-anchor="middle" x="141.47" y="-126.17" font-family="Times,serif" font-size="14.00">adder</text>
<text text-anchor="middle" x="141.47" y="-109.67" font-family="Times,serif" font-size="14.00">add&#45;numbers</text>
</g>
<!-- 1 -->
<g id="node2" class="node">
<title>1</title>
<ellipse fill="none" stroke="black" cx="141.47" cy="-28.99" rx="56.39" ry="28.99"/>
<text text-anchor="middle" x="141.47" y="-32.19" font-family="Times,serif" font-size="14.00">log</text>
<text text-anchor="middle" x="141.47" y="-15.69" font-family="Times,serif" font-size="14.00">log&#45;number</text>
</g>
<!-- 0&#45;&gt;1 -->
<g id="edge3" class="edge">
<title>0&#45;&gt;1</title>
<path fill="none" stroke="black" d="M141.47,-93.63C141.47,-86.11 141.47,-77.85 141.47,-69.84"/>
<polygon fill="black" stroke="black" points="144.97,-69.92 141.47,-59.92 137.97,-69.92 144.97,-69.92"/>
</g>
<!-- 2 -->
<g id="node3" class="node">
<title>2</title>
<ellipse fill="none" stroke="black" cx="66.47" cy="-245.12" rx="66.47" ry="40.66"/>
<text text-anchor="middle" x="66.47" y="-256.57" font-family="Times,serif" font-size="14.00">emitter_2</text>
<text text-anchor="middle" x="66.47" y="-240.07" font-family="Times,serif" font-size="14.00">emit&#45;number</text>
<text text-anchor="middle" x="66.47" y="-223.57" font-family="Times,serif" font-size="14.00">{&quot;number&quot;:2}</text>
</g>
<!-- 2&#45;&gt;0 -->
<g id="edge2" class="edge">
<title>2&#45;&gt;0</title>
<path fill="none" stroke="black" d="M89.79,-206.77C98.94,-192.1 109.42,-175.32 118.53,-160.72"/>
<polygon fill="black" stroke="black" points="121.47,-162.63 123.79,-152.29 115.53,-158.92 121.47,-162.63"/>
<text text-anchor="middle" x="123.84" y="-173.17" font-family="Times,serif" font-size="14.00">to: b</text>
</g>
<!-- 3 -->
<g id="node4" class="node">
<title>3</title>
<ellipse fill="none" stroke="black" cx="217.47" cy="-245.12" rx="66.47" ry="40.66"/>
<text text-anchor="middle" x="217.47" y="-256.57" font-family="Times,serif" font-size="14.00">emitter_1</text>
<text text-anchor="middle" x="217.47" y="-240.07" font-family="Times,serif" font-size="14.00">emit&#45;number</text>
<text text-anchor="middle" x="217.47" y="-223.57" font-family="Times,serif" font-size="14.00">{&quot;number&quot;:1}</text>
</g>
<!-- 3&#45;&gt;0 -->
<g id="edge1" class="edge">
<title>3&#45;&gt;0</title>
<path fill="none" stroke="black" d="M193.84,-206.77C184.56,-192.1 173.95,-175.32 164.71,-160.72"/>
<polygon fill="black" stroke="black" points="167.68,-158.87 159.38,-152.29 161.76,-162.61 167.68,-158.87"/>
<text text-anchor="middle" x="191.47" y="-173.17" font-family="Times,serif" font-size="14.00">to: a</text>
</g>
</g>
</svg>
